<svg width="144" height="24" viewBox="0 0 144 24" fill="none" xmlns="http://www.w3.org/2000/svg">
<g clip-path="url(#clip0_969_866)">
<rect width="144" height="24" fill="#112A54"/>
<path d="M25.8 5.33264H31.7876C33.3856 5.33264 34.66 5.80596 35.4489 6.58798C36.0355 7.20535 36.3592 7.94621 36.3592 8.87227V8.91343C36.3592 10.7656 35.2264 11.7328 34.1341 12.2267C35.7928 12.7412 37.1481 13.7084 37.1481 15.684V15.7252C37.1481 18.1741 35.1252 19.6146 32.0506 19.6146H25.8203V5.33264H25.8ZM34.7611 9.09865C34.7611 7.69926 33.6486 6.77319 31.646 6.77319H27.3778V11.6916H31.5246C33.4261 11.6916 34.7611 10.8067 34.7611 9.1398V9.09865ZM31.8078 13.1116H27.3778V18.1535H32.091C34.215 18.1535 35.55 17.1863 35.55 15.6017V15.5605C35.5298 14.0171 34.2554 13.1116 31.8078 13.1116Z" fill="white"/>
<path d="M38.7866 5.33179H40.3644V18.1321H48.2736V19.6138H38.7866V5.33179Z" fill="white"/>
<path d="M49.0828 13.6252V5.33179H50.6606V13.5429C50.6606 16.6298 52.2788 18.3585 54.9489 18.3585C57.5381 18.3585 59.1766 16.7739 59.1766 13.6458V5.33179H60.7544V13.5223C60.7544 17.6793 58.408 19.8402 54.8883 19.8402C51.4495 19.8402 49.0828 17.6588 49.0828 13.6252Z" fill="white"/>
<path d="M63.02 5.33179H73.1746V6.79292H64.618V11.6702H72.2845V13.1313H64.618V18.1321H73.2757V19.5932H63.02V5.33179Z" fill="white"/>
<path d="M77.038 5.20825H79.8902L85.898 19.5932H82.6615L81.3871 16.3828H75.4602L74.1859 19.5932H71.0303L77.038 5.20825ZM80.2948 13.6252L78.4338 8.99484L76.5728 13.6252H80.2948Z" fill="#0094FD"/>
<path d="M86.5654 5.31116H92.9778C94.7579 5.31116 96.1536 5.82564 97.0639 6.75171C97.8528 7.5543 98.2573 8.66558 98.2573 10.0238V10.065C98.2573 12.3698 97.0436 13.8104 95.2433 14.4895L98.6821 19.5932H95.0815L92.0675 15.0246H92.0473H89.6603V19.5932H86.5654V5.31116ZM92.7957 12.2464C94.2926 12.2464 95.1624 11.4232 95.1624 10.2296V10.1884C95.1624 8.85079 94.2319 8.15109 92.735 8.15109H89.6603V12.2464H92.7957Z" fill="#0094FD"/>
<path d="M99.7339 5.86682L101.959 8.10996L107.299 12.1023L112.64 8.10996L114.865 5.86682L115.411 16.2388L112.336 19.5932L111.264 14.1808L107.32 18.0497L103.335 14.2426L102.242 19.5932L99.208 16.2388L99.7339 5.86682Z" fill="#0094FD"/>
<path d="M115.573 12.4933V12.4522C115.573 8.39805 118.728 5.06421 123.057 5.06421C127.386 5.06421 130.501 8.35689 130.501 12.411V12.4522C130.501 16.5063 127.346 19.8401 123.017 19.8401C118.688 19.8401 115.573 16.5474 115.573 12.4933ZM127.265 12.4933V12.4522C127.265 10.0032 125.505 7.96589 123.017 7.96589C120.529 7.96589 118.809 9.96208 118.809 12.411V12.4522C118.809 14.9011 120.569 16.9384 123.057 16.9384C125.545 16.9384 127.265 14.9423 127.265 12.4933Z" fill="#0094FD"/>
<path d="M131.735 5.31116H138.168C139.948 5.31116 141.343 5.82564 142.254 6.75171C143.043 7.5543 143.447 8.66558 143.447 10.0238V10.065C143.447 12.3698 142.234 13.8104 140.433 14.4895L143.872 19.5932H140.271L137.257 15.0246H137.217H134.83V19.5932H131.735V5.31116ZM137.965 12.2464C139.462 12.2464 140.332 11.4232 140.332 10.2296V10.1884C140.332 8.85079 139.402 8.15109 137.905 8.15109H134.83V12.2464H137.965Z" fill="#0094FD"/>
<path d="M111.042 3.72656V3.00629H111.021C110.961 2.22427 110.617 1.504 110.05 0.948358C109.767 0.680828 109.444 0.454456 109.1 0.310401C109.1 0.310401 106.996 -0.306977 105.499 0.310401C105.155 0.475035 104.832 0.680828 104.548 0.948358C103.982 1.504 103.638 2.22427 103.577 3.00629C103.577 3.00629 103.496 3.80888 103.557 3.72656L103.011 6.79287C103.011 6.83403 103.031 6.87519 103.072 6.89577L106.369 9.18007C106.389 9.20065 106.409 9.20065 106.43 9.20065C106.45 9.20065 106.47 9.20065 106.49 9.18007C106.531 9.15949 106.551 9.11833 106.551 9.07717L106.591 6.60766C106.591 6.58708 106.591 5.66101 106.571 4.9819H105.459C105.236 4.9819 105.054 4.79668 105.054 4.57031C105.054 4.34394 105.236 4.15872 105.459 4.15872H109.059C109.282 4.15872 109.464 4.34394 109.464 4.57031C109.464 4.79668 109.282 4.9819 109.059 4.9819H108.028C108.028 5.66101 108.007 6.58708 108.007 6.60766L108.048 9.07717C108.048 9.11833 108.068 9.15949 108.108 9.18007C108.129 9.20065 108.149 9.20065 108.169 9.20065C108.189 9.20065 108.21 9.20065 108.23 9.18007L111.527 6.89577C111.567 6.87519 111.588 6.83403 111.588 6.79287L111.042 3.72656Z" fill="#0094FD"/>
<path d="M19.1844 3.04744V1.73037H15.6242V3.04744H13.5205V0.845459H10.0615V3.04744H9.131V0.845459H5.65175V3.04744H3.52779V1.75095H0.0283203V3.04744V5.04363V6.23723H19.1844V3.04744Z" fill="#0094FD"/>
<path d="M19.1844 3.04744V1.75095H15.6242V3.04744H13.5205V0.866038H10.0615V3.04744H9.131V0.845459H5.65175V3.04744H3.52779V1.73037H0.0283203V3.04744V5.02305V6.21665H19.1844V3.04744Z" fill="#0094FD"/>
<path d="M5.97644 17.206C6.11804 16.6092 5.73371 16.0124 5.14709 15.8683C4.56047 15.7243 3.97385 16.1153 3.83226 16.7121C3.69066 17.3089 4.05477 17.9057 4.66161 18.0497C5.24823 18.1938 5.83485 17.8028 5.97644 17.206Z" fill="#0094FD"/>
<path d="M9.1319 15.7654L7.51364 13.9544L9.1319 12.1846V7.18384H0.0494466C-0.0112379 7.26615 0.0089903 8.43917 0.0292185 10.2296H2.90162C3.16459 9.38582 3.93326 8.83018 4.8233 8.83018C5.93585 8.83018 6.84611 9.75625 6.84611 10.8881C6.84611 12.02 5.93585 12.946 4.8233 12.946C3.87257 12.946 3.08367 12.3287 2.86116 11.4437H0.0089903C0.0089903 12.6991 -0.0112379 14.0162 0.0089903 15.2303C1.26314 15.7448 3.12413 15.93 3.12413 15.93C3.54892 15.1686 4.43896 14.7364 5.30877 14.9422C6.40109 15.1892 7.08885 16.2799 6.84611 17.3912C6.60337 18.5024 5.53128 19.2021 4.43896 18.9552C3.52869 18.7494 2.88139 17.9262 2.86116 17.0207C2.86116 17.0207 1.24291 16.9178 0.0089903 16.4239C0.0292185 17.8851 0.0089903 18.9758 0.0089903 18.9758C3.91303 22.2273 9.1319 24.2235 9.1319 24.2235V15.7654Z" fill="#0094FD"/>
<path d="M5.93586 10.8881C5.93586 10.2708 5.45039 9.77686 4.84354 9.77686C4.2367 9.77686 3.75122 10.2708 3.75122 10.8881C3.75122 11.5055 4.2367 11.9994 4.84354 11.9994C5.43016 12.02 5.93586 11.5055 5.93586 10.8881Z" fill="#0094FD"/>
<path d="M19.145 7.18384H10.0625V12.02V15.6008V24.1823C10.0625 24.1823 11.701 23.5032 14.007 22.2479V15.2098C13.1776 14.9422 12.5708 14.1602 12.5708 13.2547C12.5708 12.1229 13.4811 11.1968 14.5936 11.1968C15.7062 11.1968 16.6164 12.1229 16.6164 13.2547C16.6164 14.222 16.05 14.9834 15.1802 15.2303V21.6511C16.4748 20.8896 17.9313 19.9636 19.1854 18.914C19.2056 18.914 19.2663 7.18384 19.145 7.18384Z" fill="#0094FD"/>
<path d="M15.7061 13.2547C15.7061 12.6373 15.2206 12.1434 14.6138 12.1434C14.007 12.1434 13.5215 12.6373 13.5215 13.2547C13.5215 13.8721 14.007 14.366 14.6138 14.366C15.2206 14.366 15.7061 13.8721 15.7061 13.2547Z" fill="#0094FD"/>
</g>
<defs>
<clipPath id="clip0_969_866">
<rect width="144" height="24" fill="white"/>
</clipPath>
</defs>
</svg>
