<svg width="20" height="21" viewBox="0 0 20 21" fill="none" xmlns="http://www.w3.org/2000/svg">
<path fill-rule="evenodd" clip-rule="evenodd" d="M4.69586 5.49996C1.64745 8.44052 1.5615 13.2507 4.5029 16.2983C7.4443 19.3459 12.2558 19.4319 15.3042 16.4913C18.3526 13.5507 18.4386 8.74057 15.4972 5.69298C12.5558 2.64538 7.74427 2.5594 4.69586 5.49996ZM14.3401 15.4921C11.8414 17.9024 7.91364 17.8322 5.50265 15.3342C3.09167 12.8361 3.16184 8.90948 5.66053 6.49918C8.15922 4.08888 12.087 4.15907 14.498 6.6571C16.9089 9.15513 16.8388 13.0818 14.3401 15.4921ZM12.4822 9.56676C12.7821 9.27748 12.7891 8.88476 12.4997 8.58496C12.2104 8.28515 11.8176 8.27813 11.5177 8.56741L10.0182 10.0138L8.57146 8.51476C8.2821 8.21496 7.88927 8.20794 7.58939 8.49721C7.2895 8.78649 7.28248 9.17921 7.57184 9.47901L9.01863 10.978L7.51921 12.4244C7.21932 12.7137 7.21231 13.1064 7.50166 13.4062C7.79102 13.706 8.18385 13.713 8.48374 13.4238L9.98316 11.9774L11.4299 13.4764C11.7193 13.7762 12.1121 13.7832 12.412 13.494C12.7119 13.2047 12.7189 12.812 12.4296 12.5122L10.9828 11.0131L12.4822 9.56676Z" fill="black"/>
</svg>
