<svg width="24" height="26" viewBox="0 0 24 26" fill="none" xmlns="http://www.w3.org/2000/svg">
<path d="M16.9999 16.6474C13.1403 16.6474 10 13.4612 10 9.54504C10 5.62873 13.1403 2.4425 16.9999 2.4425C20.8597 2.4425 24 5.62873 24 9.54504C24 13.4612 20.8597 16.6474 16.9999 16.6474Z" fill="#FF0000"/>
<path d="M15.6275 7.38077V12.4717H14.5511V8.40243H14.5213L13.3555 9.13326V8.17871L14.6158 7.38077H15.6275ZM18.6968 12.5413C18.3455 12.5413 18.0323 12.4767 17.7572 12.3474C17.4838 12.2181 17.2667 12.04 17.1059 11.8129C16.9452 11.5859 16.8615 11.3257 16.8548 11.0324H17.8989C17.9105 11.2296 17.9933 11.3895 18.1475 11.5122C18.3016 11.6348 18.4847 11.6961 18.6968 11.6961C18.8659 11.6961 19.015 11.6588 19.1443 11.5843C19.2752 11.508 19.3771 11.4028 19.45 11.2686C19.5246 11.1327 19.5619 10.9769 19.5619 10.8012C19.5619 10.6222 19.5238 10.4648 19.4475 10.3289C19.373 10.193 19.2694 10.087 19.1368 10.0107C19.0042 9.93451 18.8526 9.89557 18.6819 9.89391C18.5328 9.89391 18.3878 9.92457 18.2469 9.98588C18.1077 10.0472 17.9991 10.1309 17.9213 10.2369L16.9642 10.0654L17.2053 7.38077H20.3176V8.26074H18.0928L17.961 9.53596H17.9909C18.0803 9.41001 18.2154 9.3056 18.396 9.22274C18.5767 9.13989 18.7789 9.09846 19.0026 9.09846C19.3092 9.09846 19.5826 9.17054 19.8229 9.31472C20.0632 9.4589 20.2529 9.65693 20.3921 9.90882C20.5313 10.1591 20.6001 10.4474 20.5985 10.7739C20.6001 11.1169 20.5206 11.4218 20.3598 11.6887C20.2007 11.9538 19.9778 12.1626 19.6911 12.3151C19.4061 12.4659 19.0747 12.5413 18.6968 12.5413Z" fill="white"/>
<path d="M10.8532 25.0934C9.28059 25.0934 8 23.7949 8 22.1985C8 21.8789 8.25564 21.6195 8.57064 21.6195C8.88563 21.6195 9.14127 21.8789 9.14127 22.1985C9.14127 23.1566 9.90974 23.9355 10.8532 23.9355C11.7966 23.9355 12.5651 23.1566 12.5651 22.1985C12.5651 21.8789 12.8207 21.6195 13.1357 21.6195C13.4507 21.6195 13.7064 21.8789 13.7064 22.1985C13.7064 23.7949 12.4259 25.0934 10.8532 25.0934V25.0934Z" fill="#787878"/>
<path d="M16.8854 21.3759H4.33144C3.59725 21.3759 3 20.77 3 20.025C3 19.6297 3.16969 19.2554 3.46559 18.9982C3.48468 18.9813 3.50516 18.9659 3.52647 18.9519C4.64336 17.963 5.28254 16.5402 5.28254 15.0379V12.8841C5.28254 10.3698 6.96171 8.21135 9.36602 7.63462C9.67335 7.56281 9.98082 7.7535 10.0531 8.06547C10.1253 8.37659 9.93512 8.68842 9.62933 8.76178C7.7416 9.21411 6.42382 10.9094 6.42382 12.8841V15.0379C6.42382 16.9031 5.61802 18.6679 4.21511 19.879C4.20369 19.8883 4.19379 19.8968 4.18153 19.9053C4.16105 19.9316 4.14127 19.9717 4.14127 20.025C4.14127 20.1299 4.22807 20.218 4.33144 20.218H16.8854C16.9889 20.218 17.0757 20.1299 17.0757 20.025C17.0757 19.9709 17.056 19.9316 17.0346 19.9053C17.0232 19.8968 17.0125 19.8883 17.0019 19.879C16.3202 19.2893 15.7822 18.5776 15.4034 17.7631C15.268 17.4743 15.3896 17.1292 15.6749 16.9918C15.9626 16.8545 16.2996 16.9796 16.4343 17.2682C16.7355 17.9136 17.1578 18.4803 17.6919 18.9543C17.7117 18.9681 17.7323 18.9828 17.7497 18.9982C18.0473 19.2554 18.217 19.6297 18.217 20.025C18.217 20.77 17.6198 21.3759 16.8854 21.3759Z" fill="#787878"/>
</svg>
