<svg width="25" height="24" viewBox="0 0 25 24" fill="none" xmlns="http://www.w3.org/2000/svg">
<path fill-rule="evenodd" clip-rule="evenodd" d="M5.39766 9.68814L3.73173 8.24433C3.31437 7.88262 2.68282 7.92773 2.32111 8.34509C1.9594 8.76244 2.00451 9.394 2.42187 9.7557L3.86611 11.0074L3.97077 10.9167C4.46739 10.4862 4.94215 10.0747 5.39766 9.68814ZM7.72424 14.2808C8.11186 14.5839 8.47891 14.8539 8.83097 15.0885C9.97454 15.8505 11.0612 16.3102 12.3076 16.3102C13.554 16.3102 14.6406 15.8505 15.7842 15.0885C16.8915 14.3507 18.1472 13.2623 19.7243 11.8955L19.7765 11.8502L22.1933 9.7557C22.6106 9.394 22.6557 8.76244 22.294 8.34509C21.9323 7.92773 21.3008 7.88262 20.8834 8.24433L18.4666 10.3389C16.8254 11.7612 15.6645 12.7649 14.6751 13.4241C13.7099 14.0674 13.0109 14.3102 12.3076 14.3102C11.6042 14.3102 10.9053 14.0674 9.94 13.4241C9.72971 13.284 9.51167 13.1283 9.28291 12.9564C8.82905 13.3304 8.31737 13.7683 7.72424 14.2808Z" fill="white"/>
<path fill-rule="evenodd" clip-rule="evenodd" d="M16.8909 9.71894C16.5033 9.41581 16.1362 9.14579 15.7842 8.9112C14.6406 8.14918 13.554 7.68945 12.3076 7.68945C11.0612 7.68945 9.97454 8.14918 8.83097 8.9112C7.72367 9.64904 6.46795 10.7374 4.89082 12.1042L4.83865 12.1494L2.42187 14.244C2.00451 14.6057 1.9594 15.2373 2.32111 15.6546C2.68282 16.072 3.31437 16.1171 3.73173 15.7554L6.14851 13.6608C7.78969 12.2385 8.95062 11.2348 9.94 10.5755C10.9053 9.93234 11.6042 9.68945 12.3076 9.68945C13.0109 9.68945 13.7099 9.93234 14.6751 10.5755C14.8854 10.7157 15.1035 10.8714 15.3322 11.0433C15.7861 10.6693 16.2978 10.2314 16.8909 9.71894ZM20.749 12.9923L20.6444 13.083C20.1477 13.5135 19.673 13.925 19.2175 14.3116L20.8834 15.7554C21.3008 16.1171 21.9323 16.072 22.294 15.6546C22.6557 15.2373 22.6106 14.6057 22.1933 14.244L20.749 12.9923Z" fill="white"/>
</svg>
