<svg width="36" height="36" viewBox="0 0 36 36" fill="none" xmlns="http://www.w3.org/2000/svg">
<rect width="36" height="36" rx="18" fill="#194B9F"/>
<path d="M17.9035 25.8859L18.2016 26.4066L17.9035 25.8859ZM17.0465 25.8859L16.7484 26.4066L17.0465 25.8859ZM23.35 17.0515C23.35 19.3459 22.2922 21.2111 21.022 22.6258C19.7503 24.0423 18.2988 24.9682 17.6054 25.3652L18.2016 26.4066C18.9529 25.9765 20.5246 24.976 21.915 23.4275C23.3069 21.8772 24.55 19.7387 24.55 17.0515H23.35ZM17.3446 25.3652C16.6512 24.9682 15.1997 24.0423 13.928 22.6258C12.6578 21.2111 11.6 19.3459 11.6 17.0515H10.4C10.4 19.7387 11.6431 21.8772 13.035 23.4275C14.4254 24.976 15.9971 25.9765 16.7484 26.4066L17.3446 25.3652ZM11.6 17.0515C11.6 13.4392 14.2775 10.6 17.475 10.6V9.4C13.5204 9.4 10.4 12.8749 10.4 17.0515H11.6ZM17.475 10.6C20.6725 10.6 23.35 13.4392 23.35 17.0515H24.55C24.55 12.8749 21.4296 9.4 17.475 9.4V10.6ZM17.6054 25.3652C17.523 25.4124 17.427 25.4124 17.3446 25.3652L16.7484 26.4066C17.2001 26.6653 17.7499 26.6653 18.2016 26.4066L17.6054 25.3652Z" fill="white"/>
<path d="M17.4844 20.605C17.1563 20.5998 16.8281 20.5373 16.5 20.4175C16.1719 20.2977 15.8724 20.0959 15.6016 19.812C15.3307 19.5256 15.1133 19.1388 14.9492 18.6519C14.7852 18.1623 14.7031 17.5477 14.7031 16.8081C14.7031 16.0998 14.7695 15.4722 14.9023 14.9253C15.0352 14.3758 15.2279 13.9136 15.4805 13.5386C15.7331 13.161 16.0378 12.8745 16.3945 12.6792C16.7539 12.4839 17.1589 12.3862 17.6094 12.3862C18.0573 12.3862 18.4557 12.4761 18.8047 12.6558C19.1563 12.8328 19.4427 13.0802 19.6641 13.3979C19.8854 13.7157 20.0286 14.0815 20.0938 14.4956H19.1406C19.0521 14.1362 18.8802 13.8381 18.625 13.6011C18.3698 13.3641 18.0312 13.2456 17.6094 13.2456C16.9896 13.2456 16.5013 13.5151 16.1445 14.0542C15.7904 14.5933 15.612 15.3498 15.6094 16.3237H15.6719C15.8177 16.1024 15.9909 15.9136 16.1914 15.7573C16.3945 15.5985 16.6185 15.4761 16.8633 15.3901C17.1081 15.3042 17.3672 15.2612 17.6406 15.2612C18.099 15.2612 18.5182 15.3758 18.8984 15.605C19.2786 15.8315 19.5833 16.1453 19.8125 16.5464C20.0417 16.9448 20.1563 17.4019 20.1563 17.9175C20.1563 18.4123 20.0456 18.8654 19.8242 19.2769C19.6029 19.6857 19.2917 20.0112 18.8906 20.2534C18.4922 20.493 18.0234 20.6102 17.4844 20.605ZM17.4844 19.7456C17.8125 19.7456 18.1068 19.6636 18.3672 19.4995C18.6302 19.3354 18.8372 19.1154 18.9883 18.8394C19.1419 18.5633 19.2188 18.256 19.2188 17.9175C19.2188 17.5868 19.1445 17.286 18.9961 17.0151C18.8503 16.7417 18.6484 16.5243 18.3906 16.3628C18.1354 16.2013 17.8438 16.1206 17.5156 16.1206C17.2682 16.1206 17.0378 16.1701 16.8242 16.269C16.6107 16.3654 16.4232 16.4982 16.2617 16.6675C16.1029 16.8368 15.9779 17.0308 15.8867 17.2495C15.7956 17.4657 15.75 17.6935 15.75 17.9331C15.75 18.2508 15.8242 18.5477 15.9727 18.8237C16.1237 19.0998 16.3294 19.3224 16.5898 19.4917C16.8529 19.661 17.151 19.7456 17.4844 19.7456Z" fill="white"/>
</svg>
